<svg width="79" height="62" viewBox="0 0 79 62" fill="none" xmlns="http://www.w3.org/2000/svg">
<path d="M35.3073 59.7109C34.6113 60.4362 33.7832 61.0119 32.8708 61.4048C31.9585 61.7977 30.9799 62 29.9915 62C29.0031 62 28.0245 61.7977 27.1122 61.4048C26.1998 61.0119 25.3717 60.4362 24.6757 59.7109L2.21465 36.4945C1.5129 35.7751 0.955911 34.9192 0.575805 33.9762C0.195699 33.0331 0 32.0216 0 31C0 29.9784 0.195699 28.9669 0.575805 28.0238C0.955911 27.0808 1.5129 26.2249 2.21465 25.5055L24.6757 2.28912C25.3717 1.56377 26.1998 0.988056 27.1122 0.595169C28.0245 0.202282 29.0031 0 29.9915 0C30.9799 0 31.9585 0.202282 32.8708 0.595169C33.7832 0.988056 34.6113 1.56377 35.3073 2.28912C36.009 3.00854 36.566 3.86446 36.9461 4.8075C37.3262 5.75054 37.5219 6.76204 37.5219 7.78365C37.5219 8.80527 37.3262 9.81677 36.9461 10.7598C36.566 11.7029 36.009 12.5588 35.3073 13.2782L18.0871 31L35.3073 48.7218C36.009 49.4412 36.566 50.2971 36.9461 51.2402C37.3262 52.1832 37.5219 53.1947 37.5219 54.2163C37.5219 55.238 37.3262 56.2495 36.9461 57.1925C36.566 58.1355 36.009 58.9915 35.3073 59.7109ZM59.2657 31L76.7853 48.7218C78.1952 50.1791 78.9872 52.1555 78.9872 54.2163C78.9872 56.2772 78.1952 58.2536 76.7853 59.7109C75.3755 61.1681 73.4634 61.9868 71.4696 61.9868C69.4758 61.9868 67.5636 61.1681 66.1538 59.7109L43.6927 36.4945C42.991 35.7751 42.434 34.9192 42.0539 33.9762C41.6738 33.0331 41.4781 32.0216 41.4781 31C41.4781 29.9784 41.6738 28.9669 42.0539 28.0238C42.434 27.0808 42.991 26.2249 43.6927 25.5055L66.1538 2.28912C66.8498 1.56377 67.6779 0.988056 68.5902 0.595169C69.5026 0.202282 70.4812 0 71.4696 0C72.4579 0 73.4365 0.202282 74.3489 0.595169C75.2613 0.988056 76.0893 1.56377 76.7853 2.28912C77.4871 3.00854 78.0441 3.86446 78.4242 4.8075C78.8043 5.75054 79 6.76204 79 7.78365C79 8.80527 78.8043 9.81677 78.4242 10.7598C78.0441 11.7029 77.4871 12.5588 76.7853 13.2782L59.2657 31Z" fill="white"/>
</svg>
