<svg width="83" height="62" viewBox="0 0 83 62" fill="none" xmlns="http://www.w3.org/2000/svg">
<path d="M13.7844 59.6176C12.3061 61.1136 10.2845 61.9703 8.16437 61.9992C6.04424 62.0282 3.99925 61.2271 2.47927 59.7721C0.959292 58.3172 0.088834 56.3275 0.0593878 54.2409C0.0299415 52.1543 0.843919 50.1417 2.32226 48.6457L20.6931 30.9516L2.32226 13.2575C1.58641 12.5392 1.00235 11.6846 0.60378 10.743C0.205204 9.80144 0 8.79152 0 7.7715C0 6.75148 0.205204 5.74156 0.60378 4.79999C1.00235 3.85842 1.58641 3.00384 2.32226 2.28555C3.05209 1.56134 3.9204 0.986515 4.87709 0.594242C5.83378 0.201965 6.85993 0 7.89633 0C8.93273 0 9.95887 0.201965 10.9156 0.594242C11.8723 0.986515 12.7406 1.56134 13.4704 2.28555L37.0228 25.4656C37.7587 26.1839 38.3427 27.0385 38.7413 27.9801C39.1399 28.9216 39.3451 29.9316 39.3451 30.9516C39.3451 31.9716 39.1399 32.9815 38.7413 33.9231C38.3427 34.8647 37.7587 35.7192 37.0228 36.4375L13.7844 59.6176ZM80.5163 36.4375L56.9639 59.6176C55.4855 61.0726 53.4805 61.89 51.3898 61.89C49.2991 61.89 47.2941 61.0726 45.8157 59.6176C44.3374 58.1626 43.5069 56.1893 43.5069 54.1317C43.5069 52.074 44.3374 50.1007 45.8157 48.6457L63.8726 30.9516L45.8157 13.2575C45.0799 12.5392 44.4958 11.6846 44.0973 10.743C43.6987 9.80144 43.4935 8.79152 43.4935 7.7715C43.4935 6.75148 43.6987 5.74156 44.0973 4.79999C44.4958 3.85842 45.0799 3.00384 45.8157 2.28555C46.5456 1.56134 47.4139 0.986515 48.3706 0.594242C49.3273 0.201965 50.3534 0 51.3898 0C52.4262 0 53.4524 0.201965 54.409 0.594242C55.3657 0.986515 56.234 1.56134 56.9639 2.28555L80.5163 25.4656C81.2731 26.1633 81.8819 27.0016 82.3077 27.9322C82.7334 28.8627 82.9677 29.867 82.9969 30.8872C83.0261 31.9073 82.8497 32.923 82.4778 33.8757C82.1059 34.8283 81.546 35.699 80.8303 36.4375H80.5163Z" fill="white"/>
</svg>
