<svg width="41" height="20" viewBox="0 0 41 20" fill="none" xmlns="http://www.w3.org/2000/svg">
<g id="M.S">
<path d="M13.461 0.450928H19.5336V20H15.5995V6.77719C15.5995 6.39699 15.604 5.86649 15.6132 5.18568C15.6223 4.49602 15.6269 3.96552 15.6269 3.59416L11.8024 20H7.70378L3.90672 3.59416C3.90672 3.96552 3.91129 4.49602 3.92043 5.18568C3.92957 5.86649 3.93414 6.39699 3.93414 6.77719V20H0V0.450928H6.14109L9.81478 15.8223L13.461 0.450928Z" fill="#E9FEFB"/>
<path d="M23.0702 16.0477H27.2237V20H23.0702V16.0477Z" fill="#E9FEFB"/>
<path d="M39.0124 2.0557C38.9027 2.1176 38.7199 2.21927 38.4641 2.36074C38.2082 2.49337 37.9386 2.64368 37.6553 2.81167C37.372 2.97082 37.0978 3.13439 36.8328 3.30239C36.5678 3.46154 36.3713 3.59416 36.2434 3.70027H36.2571C36.0012 3.90363 35.791 4.09814 35.6265 4.28382C35.4621 4.46065 35.3295 4.62865 35.229 4.7878C35.1376 4.94695 35.0737 5.1061 35.0371 5.26525C35.0006 5.41556 34.9823 5.56587 34.9823 5.71618C34.9823 6.08753 35.0462 6.42794 35.1742 6.7374C35.3113 7.03802 35.494 7.3298 35.7225 7.61273C35.9601 7.88683 36.2343 8.1565 36.545 8.42175C36.8648 8.67816 37.2075 8.94783 37.5731 9.23077C38.0117 9.56676 38.4275 9.916 38.8205 10.2785C39.2226 10.6322 39.5378 10.9947 39.7663 11.366V11.3528C40.013 11.786 40.1958 12.2104 40.3146 12.626C40.4334 13.0416 40.4928 13.4394 40.4928 13.8196C40.4928 14.6773 40.2232 15.4465 39.6841 16.1273C39.154 16.8081 38.4458 17.3961 37.5593 17.8912C37.1755 18.1034 36.7597 18.3024 36.3119 18.4881C35.8733 18.6737 35.4255 18.8506 34.9686 19.0186C34.5116 19.1777 34.0501 19.328 33.5841 19.4695C33.1272 19.6021 32.6931 19.7303 32.2818 19.8541C32.0991 19.9072 31.9254 19.9469 31.7609 19.9735C31.6056 19.9912 31.4502 20 31.2949 20C30.9111 20 30.6141 19.9293 30.4039 19.7878C30.1937 19.6375 30.0886 19.4562 30.0886 19.244C30.0886 19.023 30.2165 18.7887 30.4724 18.5411C30.7374 18.2935 31.1441 18.0813 31.6924 17.9045C32.1128 17.7719 32.5332 17.6172 32.9535 17.4403C33.383 17.2635 33.7943 17.0778 34.1872 16.8833C34.5893 16.6888 34.9686 16.4987 35.325 16.313C35.6814 16.1185 36.0058 15.9416 36.2982 15.7825C36.81 15.5084 37.1755 15.2078 37.3949 14.8806C37.6142 14.5447 37.7238 14.2042 37.7238 13.8594C37.7238 13.55 37.6599 13.2493 37.5319 12.9576C37.404 12.6569 37.2486 12.3652 37.0659 12.0822C36.8557 11.7728 36.5404 11.4368 36.12 11.0743C35.6997 10.7029 35.2701 10.3404 34.8315 9.98674C34.466 9.69496 34.0958 9.39434 33.7212 9.08488C33.3556 8.76658 33.0221 8.44828 32.7205 8.12997C32.4189 7.80283 32.1722 7.47569 31.9803 7.14854C31.7975 6.8214 31.7061 6.50309 31.7061 6.19363C31.7061 5.83996 31.7564 5.49072 31.8569 5.14589C31.9574 4.80106 32.1219 4.46065 32.3504 4.12467C32.5788 3.78868 32.8758 3.46154 33.2414 3.14324C33.6069 2.82493 34.0547 2.51105 34.5848 2.20159C34.7858 2.07781 35.0051 1.94518 35.2427 1.80371C35.4895 1.6534 35.7362 1.50752 35.9829 1.36605C36.2297 1.22458 36.4719 1.09637 36.7095 0.981432C36.9471 0.86649 37.1618 0.773652 37.3537 0.702918C37.9934 0.446508 38.5463 0.265252 39.0124 0.159151C39.4784 0.0530504 39.8714 0 40.1912 0C40.7304 0 41 0.123784 41 0.371353C41 0.592396 40.8355 0.857648 40.5065 1.16711C40.1775 1.46773 39.6841 1.7595 39.0261 2.04244L39.0124 2.0557Z" fill="#E9FEFB"/>
</g>
</svg>
