<svg width="184" height="184" viewBox="0 0 184 184" fill="none" xmlns="http://www.w3.org/2000/svg">
<g filter="url(#filter0_d_44_437)">
<circle cx="90" cy="90" r="86" fill="#66D5E7"/>
<path fill-rule="evenodd" clip-rule="evenodd" d="M71.1524 41.8595C67.7982 41.8595 64.5814 43.192 62.2096 45.5638C59.8378 47.9356 58.5053 51.1524 58.5053 54.5066C58.5053 57.8608 59.8378 61.0776 62.2096 63.4494C64.5814 65.8212 67.7982 67.1537 71.1524 67.1537H83.7995V41.8595H71.1524ZM55.0553 38.4095C59.3245 34.1403 65.1148 31.7419 71.1524 31.7419H88.8583C91.6522 31.7419 93.9171 34.0068 93.9171 36.8007V72.2125C93.9171 75.0064 91.6522 77.2713 88.8583 77.2713H71.1524C65.1148 77.2713 59.3245 74.8729 55.0553 70.6037C50.7861 66.3345 48.3877 60.5442 48.3877 54.5066C48.3877 48.469 50.7861 42.6787 55.0553 38.4095Z" fill="white"/>
<path fill-rule="evenodd" clip-rule="evenodd" d="M83.8008 36.8007C83.8008 34.0068 86.0657 31.7419 88.8596 31.7419H106.565C109.555 31.7419 112.515 32.3307 115.277 33.4747C118.039 34.6188 120.549 36.2956 122.663 38.4095C124.776 40.5234 126.453 43.033 127.597 45.7949C128.741 48.5569 129.33 51.5171 129.33 54.5066C129.33 57.4961 128.741 60.4563 127.597 63.2183C126.453 65.9802 124.776 68.4898 122.663 70.6037C120.549 72.7176 118.039 74.3944 115.277 75.5384C112.515 76.6825 109.555 77.2713 106.565 77.2713H88.8596C86.0657 77.2713 83.8008 75.0064 83.8008 72.2125V36.8007ZM93.9184 41.8595V67.1537H106.565C108.226 67.1537 109.871 66.8265 111.405 66.191C112.94 65.5554 114.334 64.6238 115.508 63.4494C116.683 62.275 117.614 60.8808 118.25 59.3464C118.885 57.812 119.213 56.1674 119.213 54.5066C119.213 52.8458 118.885 51.2012 118.25 49.6668C117.614 48.1323 116.683 46.7382 115.508 45.5638C114.334 44.3894 112.94 43.4578 111.405 42.8222C109.871 42.1867 108.226 41.8595 106.565 41.8595H93.9184Z" fill="white"/>
<path fill-rule="evenodd" clip-rule="evenodd" d="M106.565 77.2713C104.905 77.2713 103.26 77.5985 101.726 78.234C100.191 78.8696 98.7971 79.8012 97.6227 80.9756C96.4483 82.15 95.5167 83.5442 94.8811 85.0786C94.2456 86.613 93.9184 88.2576 93.9184 89.9184C93.9184 91.5792 94.2456 93.2238 94.8811 94.7582C95.5167 96.2926 96.4483 97.6868 97.6227 98.8612C98.7971 100.036 100.191 100.967 101.726 101.603C103.26 102.238 104.905 102.565 106.565 102.565C108.226 102.565 109.871 102.238 111.405 101.603C112.94 100.967 114.334 100.036 115.508 98.8612C116.683 97.6868 117.614 96.2926 118.25 94.7582C118.885 93.2238 119.213 91.5792 119.213 89.9184C119.213 88.2576 118.885 86.613 118.25 85.0786C117.614 83.5442 116.683 82.15 115.508 80.9756C114.334 79.8012 112.94 78.8696 111.405 78.234C109.871 77.5985 108.226 77.2713 106.565 77.2713ZM97.8538 68.8865C100.616 67.7425 103.576 67.1537 106.565 67.1537C109.555 67.1537 112.515 67.7425 115.277 68.8865C118.039 70.0306 120.549 71.7074 122.663 73.8213C124.776 75.9352 126.453 78.4448 127.597 81.2067C128.741 83.9687 129.33 86.9289 129.33 89.9184C129.33 92.9079 128.741 95.8681 127.597 98.6301C126.453 101.392 124.776 103.902 122.663 106.015C120.549 108.129 118.039 109.806 115.277 110.95C112.515 112.094 109.555 112.683 106.565 112.683C103.576 112.683 100.616 112.094 97.8538 110.95C95.0919 109.806 92.5823 108.129 90.4684 106.015C88.3545 103.902 86.6777 101.392 85.5336 98.6301C84.3896 95.8681 83.8008 92.9079 83.8008 89.9184C83.8008 86.9289 84.3896 83.9687 85.5336 81.2067C86.6777 78.4448 88.3545 75.9352 90.4684 73.8213C92.5823 71.7074 95.0919 70.0306 97.8538 68.8865Z" fill="white"/>
<path fill-rule="evenodd" clip-rule="evenodd" d="M71.1524 112.683C67.7982 112.683 64.5814 114.016 62.2096 116.387C59.8378 118.759 58.5053 121.976 58.5053 125.33C58.5053 128.684 59.8378 131.901 62.2096 134.273C64.5814 136.645 67.7982 137.977 71.1524 137.977C74.5066 137.977 77.7234 136.645 80.0952 134.273C82.467 131.901 83.7995 128.684 83.7995 125.33V112.683H71.1524ZM55.0553 109.233C59.3245 104.964 65.1148 102.566 71.1524 102.566H88.8583C91.6522 102.566 93.9171 104.83 93.9171 107.624V125.33C93.9171 131.368 91.5187 137.158 87.2495 141.427C82.9803 145.697 77.19 148.095 71.1524 148.095C65.1148 148.095 59.3245 145.697 55.0553 141.427C50.7861 137.158 48.3877 131.368 48.3877 125.33C48.3877 119.293 50.7861 113.502 55.0553 109.233Z" fill="white"/>
<path fill-rule="evenodd" clip-rule="evenodd" d="M71.1524 77.2713C67.7982 77.2713 64.5814 78.6038 62.2096 80.9756C59.8378 83.3474 58.5053 86.5642 58.5053 89.9184C58.5053 93.2726 59.8378 96.4894 62.2096 98.8612C64.5814 101.233 67.7982 102.565 71.1524 102.565H83.7995V77.2713H71.1524ZM55.0553 73.8213C59.3245 69.5521 65.1148 67.1537 71.1524 67.1537H88.8583C91.6522 67.1537 93.9171 69.4186 93.9171 72.2125V107.624C93.9171 110.418 91.6522 112.683 88.8583 112.683H71.1524C65.1148 112.683 59.3245 110.285 55.0553 106.015C50.7861 101.746 48.3877 95.956 48.3877 89.9184C48.3877 83.8808 50.7861 78.0905 55.0553 73.8213Z" fill="white"/>
</g>
<defs>
<filter id="filter0_d_44_437" x="0" y="0" width="184" height="184" filterUnits="userSpaceOnUse" color-interpolation-filters="sRGB">
<feFlood flood-opacity="0" result="BackgroundImageFix"/>
<feColorMatrix in="SourceAlpha" type="matrix" values="0 0 0 0 0 0 0 0 0 0 0 0 0 0 0 0 0 0 127 0" result="hardAlpha"/>
<feOffset dx="2" dy="2"/>
<feGaussianBlur stdDeviation="3"/>
<feComposite in2="hardAlpha" operator="out"/>
<feColorMatrix type="matrix" values="0 0 0 0 1 0 0 0 0 1 0 0 0 0 1 0 0 0 0.25 0"/>
<feBlend mode="normal" in2="BackgroundImageFix" result="effect1_dropShadow_44_437"/>
<feBlend mode="normal" in="SourceGraphic" in2="effect1_dropShadow_44_437" result="shape"/>
</filter>
</defs>
</svg>
