<svg width="184" height="190" viewBox="0 0 184 190" fill="none" xmlns="http://www.w3.org/2000/svg">
<g filter="url(#filter0_d_44_393)">
<ellipse cx="90.2188" cy="93" rx="85.7813" ry="88.5484" fill="#66D5E7"/>
<path d="M52.6964 37.658C51.2159 37.658 50.0156 38.8969 50.0156 40.4252V51.4938C50.0156 53.022 51.2159 54.261 52.6964 54.261C54.1768 54.261 55.3771 53.022 55.3771 51.4938V40.4249C55.3771 38.8967 54.1768 37.658 52.6964 37.658Z" fill="#FAFAFA"/>
<path d="M63.4171 48.7258H52.6944C51.2139 48.7258 50.0137 47.4868 50.0137 45.9586C50.0137 44.4303 51.2139 43.1913 52.6944 43.1913H63.4171C64.8976 43.1913 66.0979 44.4303 66.0979 45.9586C66.0979 47.4868 64.8979 48.7258 63.4171 48.7258Z" fill="#FAFAFA"/>
<path d="M63.4171 54.2603C61.9366 54.2603 60.7363 53.0214 60.7363 51.4931V40.4245C60.7363 38.8963 61.9366 37.6573 63.4171 37.6573C64.8975 37.6573 66.0978 38.8963 66.0978 40.4245V51.4931C66.0978 53.0214 64.8978 54.2603 63.4171 54.2603Z" fill="#FAFAFA"/>
<path d="M84.8624 43.1917H74.1397C72.6593 43.1917 71.459 41.9527 71.459 40.4245C71.459 38.8963 72.6593 37.6573 74.1397 37.6573H84.8624C86.3429 37.6573 87.5432 38.8963 87.5432 40.4245C87.5432 41.9527 86.3429 43.1917 84.8624 43.1917Z" fill="#FAFAFA"/>
<path d="M79.5011 54.2603C78.0206 54.2603 76.8203 53.0214 76.8203 51.4931V40.4245C76.8203 38.8963 78.0206 37.6573 79.5011 37.6573C80.9815 37.6573 82.1818 38.8963 82.1818 40.4245V51.4931C82.1818 53.0214 80.9818 54.2603 79.5011 54.2603Z" fill="#FAFAFA"/>
<path d="M111.669 54.2604C110.189 54.2604 108.988 53.0214 108.988 51.4932V48.726L105.772 53.1535C104.797 54.3761 103.047 54.5517 101.863 53.5457C101.724 53.4279 101.597 53.2967 101.483 53.1535L98.2658 48.726V51.4932C98.2658 53.0214 97.0655 54.2604 95.585 54.2604C94.1046 54.2604 92.9043 53.0214 92.9043 51.4932V40.4246C92.9043 38.8963 94.1046 37.6574 95.585 37.6574C96.4287 37.6574 97.2233 38.0675 97.7295 38.7643L103.627 46.8776L109.525 38.7643C110.413 37.5417 112.093 37.2939 113.277 38.211C113.952 38.7334 114.35 39.5537 114.35 40.4246V51.4932C114.35 53.0214 113.15 54.2604 111.669 54.2604Z" fill="#FAFAFA"/>
<path d="M130.434 54.2603H122.392C120.911 54.2603 119.711 53.0214 119.711 51.4931V40.4245C119.711 38.8963 120.911 37.6573 122.392 37.6573C123.872 37.6573 125.072 38.8963 125.072 40.4245V48.7259H130.434C131.914 48.7259 133.114 49.9649 133.114 51.4931C133.114 53.0214 131.914 54.2603 130.434 54.2603Z" fill="#FAFAFA"/>
<path d="M54.2539 68.0767L59.5949 137.004C59.6751 138.039 60.3696 138.921 61.3507 139.235L89.4551 148.224C89.9521 148.382 90.4857 148.382 90.9827 148.224L119.087 139.235C120.068 138.921 120.763 138.039 120.843 137.004L126.184 68.0767C126.299 66.5948 125.138 65.3286 123.664 65.3286H56.7736C55.3002 65.3286 54.1392 66.5948 54.2539 68.0767ZM114.43 88.1123H79.6217L80.6722 97.8841H113.673L111.514 125.742L92.1617 131.932L72.8092 125.742L71.6814 111.188H81.8391V118.327L92.4331 121.195L102.964 118.327L103.781 106.95H71.3529L69.2 79.1643H115.123L114.43 88.1123Z" fill="#FC490B"/>
<path d="M79.6224 88.1121H114.431L115.124 79.1641H69.2007L71.3536 106.949H103.781L102.964 118.327L92.4338 121.195L81.8398 118.327V111.188H71.6821L72.8099 125.742L92.1623 131.932L111.515 125.742L113.674 97.884H80.6729L79.6224 88.1121Z" fill="#FAFAFA"/>
</g>
<defs>
<filter id="filter0_d_44_393" x="0.4375" y="0.451599" width="183.562" height="189.097" filterUnits="userSpaceOnUse" color-interpolation-filters="sRGB">
<feFlood flood-opacity="0" result="BackgroundImageFix"/>
<feColorMatrix in="SourceAlpha" type="matrix" values="0 0 0 0 0 0 0 0 0 0 0 0 0 0 0 0 0 0 127 0" result="hardAlpha"/>
<feOffset dx="2" dy="2"/>
<feGaussianBlur stdDeviation="3"/>
<feComposite in2="hardAlpha" operator="out"/>
<feColorMatrix type="matrix" values="0 0 0 0 1 0 0 0 0 1 0 0 0 0 1 0 0 0 0.25 0"/>
<feBlend mode="normal" in2="BackgroundImageFix" result="effect1_dropShadow_44_393"/>
<feBlend mode="normal" in="SourceGraphic" in2="effect1_dropShadow_44_393" result="shape"/>
</filter>
</defs>
</svg>
