<svg width="185" height="185" viewBox="0 0 185 185" fill="none" xmlns="http://www.w3.org/2000/svg">
<g filter="url(#filter0_d_44_415)">
<path d="M4 90.5C4 138.273 42.7274 177 90.5 177V177C138.273 177 177 138.273 177 90.5V90.5C177 42.7274 138.273 4 90.5 4V4C42.7274 4 4 42.7274 4 90.5V90.5Z" fill="#FFE100"/>
<path d="M134.651 145.131C125.984 145.131 118.933 138.288 118.933 129.877C118.933 128.945 119.712 128.189 120.673 128.189C121.634 128.189 122.413 128.945 122.413 129.877C122.413 136.425 127.903 141.753 134.651 141.753C141.399 141.753 146.889 136.426 146.889 129.877C146.889 123.329 141.399 118.002 134.651 118.002C125.984 118.002 118.933 111.159 118.933 102.749C118.933 94.3379 125.984 87.4955 134.651 87.4955C143.319 87.4955 150.37 94.3381 150.37 102.749C150.37 103.682 149.591 104.438 148.63 104.438C147.668 104.438 146.889 103.682 146.889 102.749C146.889 96.2007 141.399 90.8733 134.651 90.8733C127.903 90.8733 122.413 96.2007 122.413 102.749C122.413 109.297 127.903 114.624 134.651 114.624C143.318 114.624 150.37 121.467 150.37 129.878C150.37 138.288 143.318 145.131 134.651 145.131Z" fill="black"/>
<path d="M100.594 145.131C93.3709 145.131 87.4946 138.288 87.4946 129.877C87.4946 128.945 88.144 128.189 88.945 128.189C89.746 128.189 90.3953 128.945 90.3953 129.877C90.3953 136.425 94.9701 141.753 100.594 141.753C106.217 141.753 110.792 136.426 110.792 129.877V89.1844C110.792 88.2517 111.441 87.4955 112.242 87.4955C113.043 87.4955 113.692 88.2517 113.692 89.1844V129.877C113.692 138.288 107.816 145.131 100.594 145.131Z" fill="black"/>
</g>
<defs>
<filter id="filter0_d_44_415" x="0" y="0" width="185" height="185" filterUnits="userSpaceOnUse" color-interpolation-filters="sRGB">
<feFlood flood-opacity="0" result="BackgroundImageFix"/>
<feColorMatrix in="SourceAlpha" type="matrix" values="0 0 0 0 0 0 0 0 0 0 0 0 0 0 0 0 0 0 127 0" result="hardAlpha"/>
<feOffset dx="2" dy="2"/>
<feGaussianBlur stdDeviation="3"/>
<feComposite in2="hardAlpha" operator="out"/>
<feColorMatrix type="matrix" values="0 0 0 0 1 0 0 0 0 1 0 0 0 0 1 0 0 0 0.25 0"/>
<feBlend mode="normal" in2="BackgroundImageFix" result="effect1_dropShadow_44_415"/>
<feBlend mode="normal" in="SourceGraphic" in2="effect1_dropShadow_44_415" result="shape"/>
</filter>
</defs>
</svg>
