<svg width="184" height="184" viewBox="0 0 184 184" fill="none" xmlns="http://www.w3.org/2000/svg">
<g filter="url(#filter0_d_44_419)">
<path d="M90 176C137.497 176 176 137.497 176 90C176 42.5035 137.497 4 90 4C42.5035 4 4 42.5035 4 90C4 137.497 42.5035 176 90 176Z" fill="#5E7FD1"/>
<path d="M118.899 71.3821C112.033 71.3821 106.771 72.6385 103.104 75.1439L86.5186 58.7797C83.938 56.0378 80.8796 54.1999 77.3392 53.2724C72.242 51.9058 60.0686 52.1598 35.5059 52.1598V126.317L85.0435 175.854C86.6846 175.948 88.3364 176 90.0006 176C129.797 176 163.274 148.967 173.085 112.263L138.009 77.1878L138.007 77.1895C133.567 72.7044 126.932 71.3821 118.899 71.3821Z" fill="#2E4188"/>
<path d="M35.5059 126.317V52.1598C60.0689 52.1598 72.242 51.9065 77.3392 53.2725C81.5881 54.3854 85.1457 56.8055 88.0122 60.5314C93.5656 67.752 93.3194 79.9086 89.8333 86.456C86.6799 92.3766 81.3593 96.0635 75.771 97.2813C69.1917 98.5844 59.4505 98.3435 50.4786 98.3435V126.317H35.5059ZM50.4789 64.7051V85.7482C65.6512 85.7482 71.5671 86.2394 75.1892 80.9426C77.5938 77.4257 77.5427 71.8595 74.5065 68.4988C70.7114 64.3026 66.565 64.7051 50.4789 64.7051Z" fill="#76C8DA"/>
<path d="M94.3149 110.99L108.58 108.814C109.907 114.863 113.987 117.262 120.062 117.262C124.697 117.262 130.23 116.099 130.23 111.444C130.23 108.316 127.613 107.626 124.463 106.892C112.997 104.363 105.729 102.053 102.661 99.9621C98.412 97.0623 96.2879 93.0321 96.2879 87.8724C96.2879 83.2187 98.1255 79.307 101.801 76.1368C105.476 72.9672 111.176 71.3819 118.899 71.3819C130.636 71.3819 139.393 74.2008 142.673 85.5961L129.269 88.075C128.695 85.9848 127.607 84.3823 126.006 83.2694C122.344 80.7257 113.94 81.3404 111.109 83.1683C109.088 84.557 108.859 87.0961 110.907 88.6313C115.022 91.6655 132.609 92.7711 140.043 98.9506C143.01 101.48 144.495 105.004 144.495 109.523C144.495 114.447 142.437 118.678 138.323 122.219C134.209 125.76 128.122 127.531 120.063 127.531C112.744 127.531 106.953 126.047 102.687 123.079C98.4201 120.112 95.6301 116.082 94.3149 110.99Z" fill="#76C8DA"/>
</g>
<defs>
<filter id="filter0_d_44_419" x="0" y="0" width="184" height="184" filterUnits="userSpaceOnUse" color-interpolation-filters="sRGB">
<feFlood flood-opacity="0" result="BackgroundImageFix"/>
<feColorMatrix in="SourceAlpha" type="matrix" values="0 0 0 0 0 0 0 0 0 0 0 0 0 0 0 0 0 0 127 0" result="hardAlpha"/>
<feOffset dx="2" dy="2"/>
<feGaussianBlur stdDeviation="3"/>
<feComposite in2="hardAlpha" operator="out"/>
<feColorMatrix type="matrix" values="0 0 0 0 1 0 0 0 0 1 0 0 0 0 1 0 0 0 0.25 0"/>
<feBlend mode="normal" in2="BackgroundImageFix" result="effect1_dropShadow_44_419"/>
<feBlend mode="normal" in="SourceGraphic" in2="effect1_dropShadow_44_419" result="shape"/>
</filter>
</defs>
</svg>
