<svg width="186" height="184" viewBox="0 0 186 184" fill="none" xmlns="http://www.w3.org/2000/svg">
<g filter="url(#filter0_d_44_425)">
<ellipse cx="90.8332" cy="89.9999" rx="86.8" ry="86" fill="#66D5E7"/>
<path d="M146.693 64.7927C143.649 63.5976 140.402 62.5131 136.988 61.5398C137.87 58.0345 138.573 54.6211 139.081 51.3324C141.726 34.214 138.804 22.2058 130.854 17.5197C128.543 16.1574 125.887 15.4665 122.96 15.4665C113.716 15.4665 102.035 22.4761 90.2503 34.3137C87.6759 31.7324 85.0899 29.3615 82.5121 27.2331C69.314 16.3358 57.6661 12.9151 49.7171 17.6012C44.6083 20.6125 41.5013 26.7623 40.7327 35.3849C40.6034 36.8332 41.6488 38.114 43.0674 38.2456C44.4904 38.3797 45.7401 37.3103 45.8694 35.862C46.2951 31.0892 47.7553 24.8383 52.296 22.1619C58.1799 18.6927 68.0113 22.0338 79.2685 31.3276C81.7249 33.3556 84.1909 35.617 86.6487 38.0803C81.706 43.4496 76.7874 49.6292 72.0644 56.4591C63.7561 57.2312 55.8425 58.5264 48.5799 60.3029C47.3082 55.2556 46.4347 50.4396 46.0038 45.9687C45.8646 44.5215 44.608 43.464 43.1846 43.6062C41.7671 43.7484 40.731 45.0372 40.8706 46.4845C41.3266 51.2151 42.2489 56.3032 43.5932 61.6283C40.2932 62.5784 37.1521 63.6338 34.2012 64.7924C18.3576 71.0138 9.63281 79.6016 9.63281 88.9735C9.63281 98.3453 18.3576 106.933 34.2006 113.154C37.244 114.349 40.491 115.434 43.9051 116.407C43.0237 119.912 42.3201 123.326 41.8118 126.615C39.1677 143.733 42.0897 155.741 50.0394 160.427C52.3503 161.789 55.0062 162.48 57.933 162.48C67.0711 162.48 78.5907 155.628 90.2372 144.037C92.7321 146.525 95.2373 148.815 97.735 150.877C107.075 158.589 115.637 162.557 122.663 162.556C125.565 162.556 128.206 161.879 130.53 160.509C138.48 155.823 141.402 143.815 138.757 126.696C138.25 123.408 137.546 119.995 136.665 116.49C141.974 114.997 146.857 113.239 151.183 111.238C152.48 110.637 153.055 109.077 152.467 107.752C151.879 106.428 150.351 105.84 149.053 106.441C144.957 108.336 140.327 110.004 135.283 111.424C133.198 104.31 130.422 96.884 127.038 89.3719C130.574 81.605 133.464 73.9223 135.616 66.5731C154.759 72.0453 166.102 80.6879 166.102 88.9735C166.102 94.3266 161.53 98.7434 157.694 101.505C156.53 102.344 156.252 103.987 157.073 105.175C157.894 106.364 159.503 106.647 160.667 105.809C167.598 100.818 171.26 94.9965 171.26 88.9735C171.26 79.6016 162.536 71.0138 146.693 64.7927ZM122.96 20.7333C124.97 20.7333 126.758 21.1866 128.274 22.0808C134.159 25.5496 136.241 35.9126 133.985 50.5122C133.502 53.6395 132.833 56.8878 131.995 60.2267C124.702 58.4614 116.761 57.1792 108.427 56.4226C103.752 49.6668 98.8444 43.4886 93.8549 38.0768C94.7679 37.1576 95.6816 36.2658 96.5936 35.4077C106.653 25.9446 116.016 20.7333 122.96 20.7333ZM90.2575 41.8524C94.1493 46.0874 97.995 50.8114 101.717 55.9321C98.0135 55.726 94.2504 55.6193 90.4466 55.6193C86.5156 55.6193 82.6273 55.732 78.8043 55.9518C82.521 50.8398 86.3719 46.0965 90.2575 41.8524ZM90.2393 136.528C86.2096 132.167 82.228 127.28 78.3799 121.969C82.3394 122.206 86.3698 122.328 90.4466 122.328C94.3735 122.328 98.2639 122.211 102.094 121.987C98.2498 127.276 94.2617 132.173 90.2393 136.528ZM90.4466 117.061C84.9048 117.061 79.5873 116.842 74.5198 116.435C71.6734 112.195 68.9199 107.735 66.2984 103.099C63.7182 98.5363 61.3447 93.9327 59.1947 89.3516C61.4265 84.5553 63.9084 79.7273 66.6213 74.9296C69.2486 70.2839 72.0376 65.779 74.9355 61.4801C79.8786 61.0943 85.0558 60.8857 90.4466 60.8857C95.6988 60.8857 100.748 61.0838 105.576 61.4507C108.476 65.7576 111.281 70.293 113.949 75.011C116.649 79.7849 119.119 84.5886 121.343 89.3614C119.204 93.9053 116.841 98.4748 114.272 103.017C111.65 107.654 108.866 112.151 105.974 116.443C100.914 116.849 95.716 117.061 90.4466 117.061ZM67.8824 115.778C61.5366 115.029 55.6461 113.977 50.2736 112.685C51.905 107.141 53.9731 101.393 56.4391 95.5548C58.1235 98.9562 59.922 102.357 61.831 105.732C63.7801 109.179 65.8025 112.533 67.8824 115.778ZM68.2916 62.1202C66.1901 65.3917 64.1381 68.7879 62.1542 72.2964C60.1139 75.9042 58.1998 79.5325 56.4192 83.1551C53.8252 77.0748 51.6536 71.0858 49.9582 65.3373C55.5302 63.9824 61.6649 62.8856 68.2916 62.1202ZM14.7911 88.9735C14.7911 80.7325 26.0136 72.138 44.9698 66.6613C47.1139 73.9648 49.9909 81.625 53.4999 89.3586C50.1253 96.8587 47.3563 104.272 45.2765 111.374C26.1346 105.902 14.7911 97.259 14.7911 88.9735ZM57.9333 157.214C55.9236 157.214 54.1354 156.76 52.6189 155.866C46.7343 152.397 44.6524 142.034 46.9079 127.435C47.3911 124.307 48.0599 121.059 48.8987 117.72C55.9546 119.428 63.6171 120.684 71.6548 121.448C76.4524 128.403 81.4962 134.749 86.6243 140.284C85.8492 141.057 85.0737 141.811 84.2996 142.539C74.2402 152.003 64.8768 157.214 57.9333 157.214ZM133.662 127.516C135.918 142.116 133.836 152.479 127.951 155.948C122.066 159.416 112.236 156.076 100.979 146.782C98.6085 144.825 96.2284 142.651 93.8563 140.287C98.9324 134.818 103.988 128.489 108.837 121.476C116.895 120.721 124.595 119.476 131.667 117.786C132.508 121.131 133.179 124.384 133.662 127.516ZM130.282 112.717C124.758 114.027 118.827 115.059 112.627 115.787C114.72 112.528 116.763 109.145 118.739 105.651C120.636 102.295 122.423 98.9232 124.096 95.5541C126.571 101.403 128.645 107.162 130.282 112.717ZM124.12 83.1737C122.348 79.5718 120.445 75.965 118.416 72.3778C116.415 68.8395 114.338 65.3987 112.2 62.0738C118.856 62.8273 125.018 63.9146 130.62 65.2622C128.916 71.0528 126.733 77.0671 124.12 83.1737Z" fill="white"/>
<path d="M88.8054 78.5334C82.2037 78.5334 76.833 84.0319 76.833 90.7909C76.833 97.5498 82.2037 103.048 88.8054 103.048C95.4072 103.048 100.778 97.5498 100.778 90.7909C100.778 84.0319 95.4072 78.5334 88.8054 78.5334ZM88.8054 98.1453C84.8446 98.1453 81.622 94.846 81.622 90.7909C81.622 86.7358 84.8446 83.4364 88.8054 83.4364C92.7662 83.4364 95.9889 86.7358 95.9889 90.7909C95.9889 94.846 92.7662 98.1453 88.8054 98.1453Z" fill="white"/>
</g>
<defs>
<filter id="filter0_d_44_425" x="0.0332031" y="-0.00012207" width="185.6" height="184" filterUnits="userSpaceOnUse" color-interpolation-filters="sRGB">
<feFlood flood-opacity="0" result="BackgroundImageFix"/>
<feColorMatrix in="SourceAlpha" type="matrix" values="0 0 0 0 0 0 0 0 0 0 0 0 0 0 0 0 0 0 127 0" result="hardAlpha"/>
<feOffset dx="2" dy="2"/>
<feGaussianBlur stdDeviation="3"/>
<feComposite in2="hardAlpha" operator="out"/>
<feColorMatrix type="matrix" values="0 0 0 0 1 0 0 0 0 1 0 0 0 0 1 0 0 0 0.25 0"/>
<feBlend mode="normal" in2="BackgroundImageFix" result="effect1_dropShadow_44_425"/>
<feBlend mode="normal" in="SourceGraphic" in2="effect1_dropShadow_44_425" result="shape"/>
</filter>
</defs>
</svg>
