<svg width="184" height="184" viewBox="0 0 184 184" fill="none" xmlns="http://www.w3.org/2000/svg">
<g filter="url(#filter0_d_44_445)">
<path d="M89.9991 175.998C137.495 175.998 175.998 137.495 175.998 89.9988C175.998 42.5028 137.495 3.99963 89.9991 3.99963C42.5031 3.99963 4 42.5028 4 89.9988C4 137.495 42.5031 175.998 89.9991 175.998Z" fill="#A65A8C"/>
<path d="M175.814 84.3916L146.265 54.8432H133.006V79.7597C128.915 75.104 124.07 72.7759 118.471 72.7759C117.003 72.7759 115.598 72.9073 114.252 73.1626L95.9328 54.8432H79.7463L69.3248 71.8867L52.2813 54.8432H35.9537L57.3778 87.924L33.7358 124.025L85.601 175.889C87.0586 175.963 88.5253 176.001 90.0008 176.001C137.497 176.001 176.001 137.497 176.001 90.0005C176.001 88.1152 175.933 86.2463 175.814 84.3916Z" fill="#742B5A"/>
<path d="M33.7358 124.025L57.3782 87.924L35.954 54.8432H52.2816L66.1559 77.0695L79.7466 54.8432H95.9331L74.4139 88.4427L98.0563 124.024H81.2093L65.8724 100.098L50.4881 124.024L33.7358 124.025Z" fill="#DA2286"/>
<path d="M146.265 124.025H133.948V116.663C131.903 119.526 129.489 121.657 126.705 123.057C123.921 124.456 121.113 125.157 118.282 125.157C112.525 125.157 107.593 122.837 103.487 118.196C99.3817 113.556 97.3291 107.083 97.3291 98.7778C97.3291 90.2833 99.3269 83.8266 103.322 79.4063C107.317 74.9867 112.366 72.7759 118.47 72.7759C124.069 72.7759 128.915 75.1046 133.005 79.7597V54.8432H146.266V124.025H146.265ZM110.872 97.8809C110.872 103.23 111.612 107.099 113.091 109.49C115.23 112.951 118.218 114.681 122.056 114.681C125.108 114.681 127.703 113.383 129.843 110.788C131.982 108.192 133.052 104.315 133.052 99.1551C133.052 93.3978 132.014 89.2533 129.938 86.7203C127.861 84.1884 125.203 82.9216 121.962 82.9216C118.816 82.9216 116.182 84.1723 114.058 86.6733C111.934 89.1744 110.872 92.9107 110.872 97.8809Z" fill="#DA2286"/>
</g>
<defs>
<filter id="filter0_d_44_445" x="0" y="-0.000366211" width="184" height="184.001" filterUnits="userSpaceOnUse" color-interpolation-filters="sRGB">
<feFlood flood-opacity="0" result="BackgroundImageFix"/>
<feColorMatrix in="SourceAlpha" type="matrix" values="0 0 0 0 0 0 0 0 0 0 0 0 0 0 0 0 0 0 127 0" result="hardAlpha"/>
<feOffset dx="2" dy="2"/>
<feGaussianBlur stdDeviation="3"/>
<feComposite in2="hardAlpha" operator="out"/>
<feColorMatrix type="matrix" values="0 0 0 0 1 0 0 0 0 1 0 0 0 0 1 0 0 0 0.25 0"/>
<feBlend mode="normal" in2="BackgroundImageFix" result="effect1_dropShadow_44_445"/>
<feBlend mode="normal" in="SourceGraphic" in2="effect1_dropShadow_44_445" result="shape"/>
</filter>
</defs>
</svg>
