<svg width="28" height="27" viewBox="0 0 28 27" fill="none" xmlns="http://www.w3.org/2000/svg">
<path d="M14.4373 27C21.8931 27 27.9373 20.9558 27.9373 13.5C27.9373 6.04415 21.8931 0 14.4373 0C6.98147 0 0.937317 6.04415 0.937317 13.5C0.937317 20.9558 6.98147 27 14.4373 27Z" fill="#AA763D"/>
<path d="M27.8963 12.4426L22.4335 6.97977H19.9433V9.28389L21.2194 10.56H19.9433V12.6479L14.2752 6.97977H11.5013L6.44116 19.9715L13.4325 26.9628C13.7643 26.9871 14.0993 26.9999 14.4373 26.9999C21.8932 26.9999 27.9373 20.9558 27.9373 13.4999C27.9373 13.144 27.9233 12.7915 27.8963 12.4426Z" fill="#754E20"/>
<path d="M19.4771 19.9714H16.6236L15.4893 17.0204H10.2961L9.22385 19.9714H6.44116L11.5013 6.97977H14.2751L19.4771 19.9714ZM14.6474 14.8314L12.8572 10.0105L11.1026 14.8314H14.6474Z" fill="#DF871E"/>
<path d="M19.9434 9.28389V6.97977H22.4335V9.28389H19.9434ZM19.9434 19.9714V10.56H22.4335V19.9714H19.9434V19.9714Z" fill="#DF871E"/>
</svg>
