<svg width="28" height="27" viewBox="0 0 28 27" fill="none" xmlns="http://www.w3.org/2000/svg">
<path d="M27.8125 13.5C27.8125 17.8409 25.7632 21.7036 22.5794 24.1733C20.2955 25.9453 17.4274 27 14.3125 27C11.1976 27 8.32952 25.9453 6.04554 24.1733C2.86176 21.7036 0.8125 17.8409 0.8125 13.5C0.8125 6.04415 6.85665 0 14.3125 0C21.7683 0 27.8125 6.04415 27.8125 13.5Z" fill="#66D5E7"/>
<path d="M24.1206 6.30042L22.5794 24.1733C20.2954 25.9454 17.4274 27 14.3124 27C11.1975 27 8.32946 25.9454 6.04549 24.1733L4.50427 6.30042H24.1206Z" fill="#006BC0"/>
<path d="M14.3124 7.98071V26.6465L20.7603 24.8261L22.1987 7.98071H14.3124Z" fill="#0096DC"/>
<path d="M20.0096 15.2817H15.3592L20.2186 12.8086L20.4286 10.3225H8.19592L8.40997 12.8572H13.3204L8.60894 15.213L8.82815 17.8096H17.2326L16.9572 20.9021L14.3123 21.6184L11.5572 20.847L11.4883 18.9184H8.92181L9.24286 22.7205L14.3123 24.1531L19.3816 22.7205L20.0098 15.2813L20.0096 15.2817Z" fill="white"/>
<path d="M10.0654 4.10257V2.53602H12.3173V1.6875H9.24951V4.95109H12.3173V4.10257H10.0654Z" fill="#FAFAFA"/>
<path d="M13.635 2.96437V2.5727H15.8747V2.53602V1.6875H12.8069V3.7109H15.0057V4.10257H12.8069V4.95109H15.8747V4.10257V2.96437H13.635Z" fill="#FAFAFA"/>
<path d="M17.1351 2.96437V2.5727H19.3748V2.53602V1.6875H16.307V3.7109H18.5059V4.10257H16.307V4.95109H19.3748V4.10257V2.96437H17.1351Z" fill="#FAFAFA"/>
</svg>
