<svg width="28" height="27" viewBox="0 0 28 27" fill="none" xmlns="http://www.w3.org/2000/svg">
<circle cx="14.1249" cy="13.5" r="13.5" fill="#66D5E7"/>
<path fill-rule="evenodd" clip-rule="evenodd" d="M11.1661 5.94306C10.6396 5.94306 10.1346 6.15223 9.7623 6.52454C9.38999 6.89686 9.18082 7.40182 9.18082 7.92835C9.18082 8.45489 9.38999 8.95985 9.7623 9.33217C10.1346 9.70448 10.6396 9.91365 11.1661 9.91365H13.1514V5.94306H11.1661ZM8.63925 5.40149C9.30942 4.73132 10.2184 4.35483 11.1661 4.35483H13.9455C14.3841 4.35483 14.7396 4.71037 14.7396 5.14894V10.7078C14.7396 11.1463 14.3841 11.5019 13.9455 11.5019H11.1661C10.2184 11.5019 9.30942 11.1254 8.63925 10.4552C7.96909 9.78505 7.59259 8.87611 7.59259 7.92835C7.59259 6.9806 7.96909 6.07166 8.63925 5.40149Z" fill="white"/>
<path fill-rule="evenodd" clip-rule="evenodd" d="M13.1515 5.14894C13.1515 4.71037 13.507 4.35483 13.9456 4.35483H16.725C17.1943 4.35483 17.659 4.44726 18.0925 4.62685C18.5261 4.80643 18.92 5.06966 19.2519 5.40149C19.5837 5.73332 19.8469 6.12727 20.0265 6.56083C20.2061 6.99438 20.2985 7.45907 20.2985 7.92835C20.2985 8.39764 20.2061 8.86232 20.0265 9.29588C19.8469 9.72944 19.5837 10.1234 19.2519 10.4552C18.92 10.7871 18.5261 11.0503 18.0925 11.2299C17.659 11.4094 17.1943 11.5019 16.725 11.5019H13.9456C13.507 11.5019 13.1515 11.1463 13.1515 10.7078V5.14894ZM14.7397 5.94306V9.91365H16.725C16.9857 9.91365 17.2439 9.8623 17.4848 9.76253C17.7256 9.66276 17.9445 9.51652 18.1288 9.33217C18.3132 9.14782 18.4594 8.92896 18.5592 8.68809C18.659 8.44723 18.7103 8.18907 18.7103 7.92835C18.7103 7.66764 18.659 7.40948 18.5592 7.16862C18.4594 6.92775 18.3132 6.70889 18.1288 6.52454C17.9445 6.34019 17.7256 6.19395 17.4848 6.09418C17.2439 5.99441 16.9857 5.94306 16.725 5.94306H14.7397Z" fill="white"/>
<path fill-rule="evenodd" clip-rule="evenodd" d="M16.725 11.5019C16.4643 11.5019 16.2061 11.5533 15.9653 11.653C15.7244 11.7528 15.5056 11.899 15.3212 12.0834C15.1369 12.2677 14.9906 12.4866 14.8908 12.7275C14.7911 12.9683 14.7397 13.2265 14.7397 13.4872C14.7397 13.7479 14.7911 14.0061 14.8908 14.2469C14.9906 14.4878 15.1369 14.7067 15.3212 14.891C15.5056 15.0754 15.7244 15.2216 15.9653 15.3214C16.2061 15.4211 16.4643 15.4725 16.725 15.4725C16.9857 15.4725 17.2439 15.4211 17.4848 15.3214C17.7256 15.2216 17.9445 15.0754 18.1288 14.891C18.3132 14.7067 18.4594 14.4878 18.5592 14.2469C18.659 14.0061 18.7103 13.7479 18.7103 13.4872C18.7103 13.2265 18.659 12.9683 18.5592 12.7275C18.4594 12.4866 18.3132 12.2677 18.1288 12.0834C17.9445 11.899 17.7256 11.7528 17.4848 11.653C17.2439 11.5533 16.9857 11.5019 16.725 11.5019ZM15.3575 10.1857C15.791 10.0061 16.2557 9.91367 16.725 9.91367C17.1943 9.91367 17.659 10.0061 18.0925 10.1857C18.5261 10.3653 18.92 10.6285 19.2519 10.9603C19.5837 11.2922 19.8469 11.6861 20.0265 12.1197C20.2061 12.5532 20.2985 13.0179 20.2985 13.4872C20.2985 13.9565 20.2061 14.4212 20.0265 14.8547C19.8469 15.2883 19.5837 15.6822 19.2519 16.0141C18.92 16.3459 18.5261 16.6091 18.0925 16.7887C17.659 16.9683 17.1943 17.0607 16.725 17.0607C16.2557 17.0607 15.791 16.9683 15.3575 16.7887C14.9239 16.6091 14.53 16.3459 14.1982 16.0141C13.8663 15.6822 13.6031 15.2883 13.4235 14.8547C13.2439 14.4212 13.1515 13.9565 13.1515 13.4872C13.1515 13.0179 13.2439 12.5532 13.4235 12.1197C13.6031 11.6861 13.8663 11.2922 14.1982 10.9603C14.53 10.6285 14.9239 10.3653 15.3575 10.1857Z" fill="white"/>
<path fill-rule="evenodd" clip-rule="evenodd" d="M11.1661 17.0607C10.6396 17.0607 10.1346 17.2699 9.7623 17.6422C9.38999 18.0145 9.18082 18.5195 9.18082 19.046C9.18082 19.5726 9.38999 20.0775 9.7623 20.4498C10.1346 20.8222 10.6396 21.0313 11.1661 21.0313C11.6926 21.0313 12.1976 20.8222 12.5699 20.4498C12.9422 20.0775 13.1514 19.5726 13.1514 19.046V17.0607H11.1661ZM8.63925 16.5192C9.30942 15.849 10.2184 15.4725 11.1661 15.4725H13.9455C14.3841 15.4725 14.7396 15.828 14.7396 16.2666V19.046C14.7396 19.9938 14.3631 20.9027 13.693 21.5729C13.0228 22.2431 12.1139 22.6196 11.1661 22.6196C10.2184 22.6196 9.30942 22.2431 8.63925 21.5729C7.96909 20.9027 7.59259 19.9938 7.59259 19.046C7.59259 18.0983 7.96909 17.1893 8.63925 16.5192Z" fill="white"/>
<path fill-rule="evenodd" clip-rule="evenodd" d="M11.1661 11.5019C10.6396 11.5019 10.1346 11.7111 9.7623 12.0834C9.38999 12.4557 9.18082 12.9607 9.18082 13.4872C9.18082 14.0137 9.38999 14.5187 9.7623 14.891C10.1346 15.2633 10.6396 15.4725 11.1661 15.4725H13.1514V11.5019H11.1661ZM8.63925 10.9603C9.30942 10.2902 10.2184 9.91367 11.1661 9.91367H13.9455C14.3841 9.91367 14.7396 10.2692 14.7396 10.7078V16.2666C14.7396 16.7052 14.3841 17.0607 13.9455 17.0607H11.1661C10.2184 17.0607 9.30942 16.6842 8.63925 16.0141C7.96909 15.3439 7.59259 14.435 7.59259 13.4872C7.59259 12.5394 7.96909 11.6305 8.63925 10.9603Z" fill="white"/>
</svg>
