<svg width="27" height="27" viewBox="0 0 27 27" fill="none" xmlns="http://www.w3.org/2000/svg">
<ellipse cx="13.0781" cy="13.5" rx="13.0781" ry="13.5" fill="#66D5E7"/>
<path d="M7.35743 5.06271C7.13172 5.06271 6.94873 5.25161 6.94873 5.4846V7.17211C6.94873 7.4051 7.13172 7.594 7.35743 7.594C7.58315 7.594 7.76614 7.4051 7.76614 7.17211V5.48456C7.76614 5.25157 7.58315 5.06271 7.35743 5.06271Z" fill="#FAFAFA"/>
<path d="M8.99209 6.74999H7.35731C7.1316 6.74999 6.94861 6.5611 6.94861 6.32811C6.94861 6.09511 7.1316 5.90622 7.35731 5.90622H8.99209C9.2178 5.90622 9.40079 6.09511 9.40079 6.32811C9.40079 6.5611 9.21784 6.74999 8.99209 6.74999Z" fill="#FAFAFA"/>
<path d="M8.99208 7.59378C8.76636 7.59378 8.58337 7.40489 8.58337 7.17189V5.48439C8.58337 5.25139 8.76636 5.0625 8.99208 5.0625C9.21779 5.0625 9.40078 5.25139 9.40078 5.48439V7.17189C9.40078 7.40489 9.21783 7.59378 8.99208 7.59378Z" fill="#FAFAFA"/>
<path d="M12.2616 5.90627H10.6268C10.4011 5.90627 10.2181 5.71738 10.2181 5.48439C10.2181 5.25139 10.4011 5.0625 10.6268 5.0625H12.2616C12.4873 5.0625 12.6703 5.25139 12.6703 5.48439C12.6703 5.71738 12.4873 5.90627 12.2616 5.90627Z" fill="#FAFAFA"/>
<path d="M11.4442 7.59378C11.2185 7.59378 11.0355 7.40489 11.0355 7.17189V5.48439C11.0355 5.25139 11.2185 5.0625 11.4442 5.0625C11.6699 5.0625 11.8529 5.25139 11.8529 5.48439V7.17189C11.8529 7.40489 11.67 7.59378 11.4442 7.59378Z" fill="#FAFAFA"/>
<path d="M16.3484 7.59379C16.1227 7.59379 15.9397 7.4049 15.9397 7.17191V6.75002L15.4493 7.42503C15.3007 7.61143 15.0339 7.63821 14.8533 7.48483C14.8322 7.46688 14.8128 7.44686 14.7954 7.42503L14.305 6.75002V7.17191C14.305 7.4049 14.122 7.59379 13.8963 7.59379C13.6705 7.59379 13.4875 7.4049 13.4875 7.17191V5.4844C13.4875 5.25141 13.6705 5.06251 13.8963 5.06251C14.0249 5.06251 14.146 5.12504 14.2232 5.23127L15.1223 6.46822L16.0215 5.23127C16.1569 5.04487 16.4131 5.0071 16.5936 5.14691C16.6965 5.22657 16.7571 5.35163 16.7571 5.4844V7.17191C16.7571 7.4049 16.5742 7.59379 16.3484 7.59379Z" fill="#FAFAFA"/>
<path d="M19.2094 7.59378H17.9833C17.7576 7.59378 17.5746 7.40489 17.5746 7.17189V5.48439C17.5746 5.25139 17.7576 5.0625 17.9833 5.0625C18.209 5.0625 18.392 5.25139 18.392 5.48439V6.75001H19.2094C19.4351 6.75001 19.6181 6.9389 19.6181 7.17189C19.6181 7.40489 19.4351 7.59378 19.2094 7.59378Z" fill="#FAFAFA"/>
<path d="M7.59494 9.70022L8.40922 20.2087C8.42145 20.3665 8.52733 20.5011 8.67691 20.5489L12.9617 21.9193C13.0374 21.9435 13.1188 21.9435 13.1946 21.9193L17.4793 20.5489C17.6289 20.5011 17.7348 20.3665 17.747 20.2087L18.5613 9.70022C18.5788 9.47429 18.4018 9.28125 18.1772 9.28125H7.97909C7.75446 9.28125 7.57746 9.47429 7.59494 9.70022ZM16.7693 12.7548H11.4625L11.6226 14.2446H16.6539L16.3248 18.4919L13.3743 19.4355L10.4239 18.4919L10.2519 16.2729H11.8005V17.3614L13.4157 17.7986L15.0212 17.3614L15.1458 15.6267H10.2018L9.87361 11.3906H16.875L16.7693 12.7548Z" fill="#FC490B"/>
<path d="M11.4625 12.7548H16.7694L16.875 11.3906H9.87366L10.2019 15.6267H15.1458L15.0212 17.3614L13.4157 17.7986L11.8006 17.3614V16.2729H10.252L10.4239 18.4919L13.3744 19.4355L16.3248 18.4919L16.6539 14.2446H11.6227L11.4625 12.7548Z" fill="#FAFAFA"/>
</svg>
