<svg width="28" height="27" viewBox="0 0 28 27" fill="none" xmlns="http://www.w3.org/2000/svg">
<path d="M0.46875 13.4735C0.46875 20.9148 6.50106 26.9471 13.9423 26.9471V26.9471C21.3835 26.9471 27.4158 20.9148 27.4158 13.4735V13.4735C27.4158 6.03231 21.3835 0 13.9423 0V0C6.50106 0 0.46875 6.03231 0.46875 13.4735V13.4735Z" fill="#FFE100"/>
<path d="M21.3733 22.6466C19.9324 22.6466 18.7602 21.5091 18.7602 20.1109C18.7602 19.9558 18.8898 19.8301 19.0495 19.8301C19.2093 19.8301 19.3388 19.9558 19.3388 20.1109C19.3388 21.1994 20.2515 22.0851 21.3733 22.0851C22.495 22.0851 23.4077 21.1994 23.4077 20.1109C23.4077 19.0223 22.495 18.1367 21.3733 18.1367C19.9324 18.1367 18.7602 16.9992 18.7602 15.601C18.7602 14.2028 19.9324 13.0653 21.3733 13.0653C22.8141 13.0653 23.9863 14.2028 23.9863 15.601C23.9863 15.7561 23.8568 15.8818 23.697 15.8818C23.5372 15.8818 23.4077 15.7561 23.4077 15.601C23.4077 14.5125 22.495 13.6269 21.3733 13.6269C20.2515 13.6269 19.3388 14.5125 19.3388 15.601C19.3388 16.6896 20.2515 17.5752 21.3733 17.5752C22.8141 17.5752 23.9863 18.7127 23.9863 20.1109C23.9863 21.5091 22.8141 22.6466 21.3733 22.6466Z" fill="black"/>
<path d="M15.7116 22.6466C14.5109 22.6466 13.5341 21.5091 13.5341 20.1109C13.5341 19.9558 13.642 19.8301 13.7752 19.8301C13.9083 19.8301 14.0163 19.9558 14.0163 20.1109C14.0163 21.1994 14.7768 22.0851 15.7116 22.0851C16.6465 22.0851 17.407 21.1994 17.407 20.1109V13.3461C17.407 13.191 17.5149 13.0653 17.6481 13.0653C17.7812 13.0653 17.8892 13.191 17.8892 13.3461V20.1108C17.8891 21.509 16.9123 22.6466 15.7116 22.6466Z" fill="black"/>
</svg>
