<svg width="28" height="27" viewBox="0 0 28 27" fill="none" xmlns="http://www.w3.org/2000/svg">
<path d="M13.7811 27C21.237 27 27.2811 20.9558 27.2811 13.5C27.2811 6.04415 21.237 0 13.7811 0C6.32528 0 0.281128 6.04415 0.281128 13.5C0.281128 20.9558 6.32528 27 13.7811 27Z" fill="#5E7FD1"/>
<path d="M18.3176 10.5774C17.2397 10.5774 16.4136 10.7746 15.838 11.1679L13.2346 8.59912C12.8295 8.1687 12.3494 7.88019 11.7936 7.73459C10.9935 7.52007 9.08252 7.55993 5.22675 7.55993V19.2008L13.003 26.9771C13.2606 26.9917 13.5199 27 13.7812 27C20.0282 27 25.2834 22.7563 26.8234 16.9948L21.3174 11.4887L21.3171 11.489C20.62 10.785 19.5784 10.5774 18.3176 10.5774Z" fill="#2E4188"/>
<path d="M5.22675 19.2009V7.55998C9.08257 7.55998 10.9935 7.52022 11.7936 7.73463C12.4606 7.90934 13.019 8.28924 13.469 8.87412C14.3408 10.0076 14.3021 11.9159 13.7549 12.9437C13.2599 13.8731 12.4247 14.4518 11.5474 14.643C10.5146 14.8475 8.98549 14.8097 7.57712 14.8097V19.2009H5.22675ZM7.57717 9.52929V12.8326C9.95886 12.8326 10.8875 12.9097 11.4561 12.0782C11.8336 11.5261 11.8256 10.6524 11.3489 10.1248C10.7532 9.46611 10.1023 9.52929 7.57717 9.52929Z" fill="#76C8DA"/>
<path d="M14.4584 16.7949L16.6977 16.4534C16.9061 17.403 17.5465 17.7795 18.5002 17.7795C19.2278 17.7795 20.0962 17.597 20.0962 16.8663C20.0962 16.3751 19.6854 16.2669 19.191 16.1517C17.3911 15.7546 16.2502 15.3921 15.7686 15.0638C15.1016 14.6086 14.7681 13.976 14.7681 13.166C14.7681 12.4355 15.0566 11.8214 15.6336 11.3238C16.2105 10.8262 17.1052 10.5774 18.3175 10.5774C20.16 10.5774 21.5346 11.0199 22.0496 12.8087L19.9453 13.1978C19.8553 12.8697 19.6846 12.6182 19.4332 12.4435C18.8583 12.0441 17.5392 12.1406 17.0947 12.4276C16.7775 12.6456 16.7415 13.0441 17.0629 13.2851C17.709 13.7614 20.4697 13.935 21.6367 14.905C22.1025 15.3021 22.3355 15.8553 22.3355 16.5646C22.3355 17.3376 22.0125 18.0018 21.3667 18.5577C20.7208 19.1135 19.7653 19.3915 18.5002 19.3915C17.3514 19.3915 16.4422 19.1586 15.7726 18.6927C15.1028 18.2269 14.6649 17.5943 14.4584 16.7949Z" fill="#76C8DA"/>
</svg>
