<svg width="29" height="27" viewBox="0 0 29 27" fill="none" xmlns="http://www.w3.org/2000/svg">
<ellipse cx="14.0749" cy="13.5" rx="13.95" ry="13.5" fill="#66D5E7"/>
<path d="M23.0524 9.54305C22.5632 9.35544 22.0414 9.1852 21.4927 9.03242C21.6344 8.48216 21.7474 7.94635 21.8291 7.43009C22.2541 4.74291 21.7845 2.8579 20.5068 2.12229C20.1354 1.90845 19.7086 1.79999 19.2382 1.79999C17.7525 1.79999 15.8752 2.90034 13.9813 4.75856C13.5675 4.35336 13.1519 3.98118 12.7376 3.64708C10.6165 1.93645 8.74454 1.39948 7.46702 2.13508C6.64596 2.60779 6.14662 3.57317 6.0231 4.92671C6.00232 5.15405 6.17033 5.35511 6.39831 5.37578C6.62701 5.39683 6.82785 5.22895 6.84863 5.00161C6.91705 4.25239 7.15172 3.27114 7.88147 2.85101C8.82711 2.30643 10.4072 2.83089 12.2163 4.28981C12.6111 4.60815 13.0074 4.96314 13.4024 5.34982C12.6081 6.19268 11.8176 7.16274 11.0585 8.23487C9.72327 8.35606 8.45145 8.55938 7.28425 8.83825C7.07987 8.04594 6.93949 7.28994 6.87024 6.58812C6.84786 6.36094 6.64591 6.19494 6.41716 6.21726C6.18934 6.23958 6.02282 6.4419 6.04526 6.66908C6.11854 7.41169 6.26677 8.2104 6.48281 9.04631C5.95246 9.19545 5.44765 9.36112 4.9734 9.543C2.4271 10.5196 1.0249 11.8677 1.0249 13.3389C1.0249 14.81 2.4271 16.1581 4.97329 17.1347C5.46241 17.3223 5.98424 17.4925 6.53294 17.6453C6.39129 18.1955 6.27821 18.7314 6.19653 19.2476C5.77157 21.9348 6.24118 23.8198 7.51881 24.5554C7.89021 24.7693 8.31704 24.8777 8.78742 24.8777C10.2561 24.8777 12.1074 23.8021 13.9792 21.9825C14.3801 22.3731 14.7828 22.7326 15.1842 23.0563C16.6853 24.2669 18.0614 24.8897 19.1905 24.8896C19.6568 24.8896 20.0813 24.7833 20.4548 24.5683C21.7324 23.8327 22.202 21.9476 21.7771 19.2605C21.6954 18.7443 21.5824 18.2085 21.4407 17.6583C22.294 17.424 23.0788 17.1479 23.774 16.8338C23.9825 16.7395 24.0749 16.4946 23.9804 16.2867C23.8859 16.0787 23.6402 15.9865 23.4318 16.0808C22.7734 16.3783 22.0292 16.6402 21.2187 16.863C20.8837 15.7463 20.4374 14.5806 19.8936 13.4014C20.4619 12.1822 20.9263 10.9762 21.2722 9.82253C24.3487 10.6815 26.1717 12.0382 26.1717 13.3389C26.1717 14.1792 25.4369 14.8725 24.8204 15.3061C24.6334 15.4377 24.5887 15.6956 24.7206 15.8821C24.8526 16.0688 25.1112 16.1132 25.2983 15.9817C26.4121 15.1982 27.0007 14.2843 27.0007 13.3389C27.0007 11.8677 25.5985 10.5196 23.0524 9.54305ZM19.2382 2.62675C19.5612 2.62675 19.8485 2.6979 20.0923 2.83828C21.038 3.3828 21.3726 5.00955 21.0101 7.30135C20.9325 7.79225 20.825 8.30216 20.6902 8.82629C19.5181 8.54918 18.2419 8.34791 16.9026 8.22913C16.1511 7.16863 15.3625 6.19879 14.5606 5.34927C14.7073 5.20498 14.8542 5.06499 15.0007 4.93029C16.6174 3.44481 18.1223 2.62675 19.2382 2.62675ZM13.9824 5.94196C14.6079 6.60675 15.226 7.34831 15.8241 8.15214C15.2289 8.11979 14.6241 8.10303 14.0128 8.10303C13.3811 8.10303 12.7561 8.12073 12.1417 8.15523C12.7391 7.35277 13.358 6.60818 13.9824 5.94196ZM13.9795 20.8038C13.3319 20.1193 12.692 19.3521 12.0735 18.5185C12.7099 18.5556 13.3576 18.5747 14.0128 18.5747C14.6439 18.5747 15.2692 18.5563 15.8848 18.5213C15.2669 19.3515 14.626 20.1201 13.9795 20.8038ZM14.0128 17.748C13.1222 17.748 12.2676 17.7136 11.4532 17.6496C10.9957 16.9841 10.5532 16.2839 10.1319 15.5562C9.71719 14.84 9.33573 14.1173 8.9902 13.3982C9.34889 12.6453 9.74776 11.8874 10.1838 11.1343C10.606 10.405 11.0542 9.69787 11.52 9.02305C12.3144 8.96248 13.1464 8.92974 14.0128 8.92974C14.8569 8.92974 15.6684 8.96083 16.4443 9.01842C16.9104 9.6945 17.3612 10.4065 17.79 11.1471C18.2238 11.8965 18.6209 12.6505 18.9782 13.3998C18.6345 14.113 18.2547 14.8303 17.8419 15.5434C17.4205 16.2712 16.9731 16.9771 16.5083 17.6509C15.695 17.7147 14.8597 17.748 14.0128 17.748ZM10.3864 17.5465C9.36657 17.429 8.41989 17.2638 7.55645 17.061C7.81864 16.1908 8.15102 15.2885 8.54734 14.372C8.81804 14.9059 9.10709 15.4397 9.41388 15.9696C9.72714 16.5107 10.0522 17.0372 10.3864 17.5465ZM10.4522 9.12352C10.1145 9.63708 9.78467 10.1702 9.46584 10.7209C9.13793 11.2873 8.83031 11.8568 8.54413 12.4255C8.12725 11.471 7.77823 10.5309 7.50576 9.62853C8.40127 9.41585 9.38719 9.24367 10.4522 9.12352ZM1.85392 13.3389C1.85392 12.0452 3.65753 10.6961 6.70405 9.83637C7.04865 10.9828 7.51101 12.1853 8.07497 13.3993C7.53262 14.5767 7.08761 15.7404 6.75335 16.8552C3.67698 15.9962 1.85392 14.6395 1.85392 13.3389ZM8.78748 24.051C8.46449 24.051 8.1771 23.9798 7.93337 23.8394C6.98763 23.2949 6.65304 21.6682 7.01554 19.3764C7.09319 18.8855 7.20069 18.3756 7.33548 17.8514C8.46947 18.1195 9.70094 18.3166 10.9927 18.4367C11.7638 19.5283 12.5744 20.5246 13.3985 21.3934C13.2739 21.5147 13.1493 21.6331 13.0249 21.7474C11.4082 23.233 9.90339 24.051 8.78748 24.051ZM20.9582 19.3892C21.3207 21.681 20.9861 23.3077 20.0404 23.8523C19.0946 24.3967 17.5147 23.8723 15.7055 22.4135C15.3245 22.1063 14.942 21.7649 14.5608 21.3939C15.3766 20.5354 16.1891 19.5419 16.9684 18.441C18.2635 18.3224 19.5009 18.127 20.6376 17.8618C20.7727 18.3868 20.8804 18.8975 20.9582 19.3892ZM20.4149 17.066C19.5271 17.2717 18.5739 17.4336 17.5775 17.548C17.9138 17.0363 18.2422 16.5053 18.5598 15.9568C18.8647 15.4301 19.1519 14.9007 19.4208 14.3719C19.8185 15.2901 20.1519 16.1941 20.4149 17.066ZM19.4246 12.4284C19.1399 11.863 18.8339 11.2968 18.5079 10.7337C18.1864 10.1783 17.8525 9.63818 17.5088 9.11625C18.5785 9.23452 19.569 9.40521 20.4692 9.61674C20.1954 10.5257 19.8446 11.4698 19.4246 12.4284Z" fill="white"/>
<path d="M13.749 11.7C12.688 11.7 11.8249 12.5631 11.8249 13.6241C11.8249 14.6851 12.688 15.5483 13.749 15.5483C14.81 15.5483 15.6732 14.6851 15.6732 13.6241C15.6732 12.5631 14.81 11.7 13.749 11.7ZM13.749 14.7786C13.1125 14.7786 12.5945 14.2607 12.5945 13.6241C12.5945 12.9876 13.1125 12.4696 13.749 12.4696C14.3856 12.4696 14.9035 12.9876 14.9035 13.6241C14.9035 14.2607 14.3856 14.7786 13.749 14.7786Z" fill="white"/>
</svg>
