<svg width="27" height="27" viewBox="0 0 27 27" fill="none" xmlns="http://www.w3.org/2000/svg">
<path d="M13.4998 26.9996C20.9555 26.9996 26.9996 20.9555 26.9996 13.4998C26.9996 6.04406 20.9555 0 13.4998 0C6.04406 0 0 6.04406 0 13.4998C0 20.9555 6.04406 26.9996 13.4998 26.9996Z" fill="#A65A8C"/>
<path d="M26.9706 12.6196L22.3322 7.9812H20.2507V11.8925C19.6087 11.1617 18.8481 10.7962 17.9691 10.7962C17.7387 10.7962 17.5181 10.8168 17.3069 10.8569L14.4312 7.9812H11.8903L10.2544 10.6566L7.57898 7.9812H5.01594L8.37901 13.1741L4.66779 18.841L12.8094 26.9825C13.0382 26.9941 13.2684 27 13.5 27C20.9558 27 26.9999 20.9558 26.9999 13.5C26.9999 13.2041 26.9893 12.9107 26.9706 12.6196Z" fill="#742B5A"/>
<path d="M4.66779 18.841L8.37906 13.1741L5.01599 7.9812H7.57903L9.75695 11.4702L11.8904 7.9812H14.4313L11.0533 13.2555L14.7645 18.841H12.12L9.71245 15.0852L7.29748 18.841L4.66779 18.841Z" fill="#DA2286"/>
<path d="M22.3322 18.841H20.3987V17.6854C20.0777 18.1348 19.6987 18.4694 19.2617 18.6891C18.8246 18.9088 18.3839 19.0188 17.9394 19.0188C17.0357 19.0188 16.2616 18.6546 15.6171 17.9261C14.9726 17.1977 14.6504 16.1816 14.6504 14.8779C14.6504 13.5444 14.964 12.5309 15.5911 11.837C16.2183 11.1432 17.0109 10.7962 17.9691 10.7962C18.848 10.7962 19.6086 11.1618 20.2507 11.8925V7.9812H22.3322V18.841H22.3322ZM16.7764 14.7371C16.7764 15.5767 16.8924 16.1842 17.1246 16.5594C17.4603 17.1027 17.9295 17.3743 18.532 17.3743C19.011 17.3743 19.4184 17.1706 19.7543 16.7631C20.09 16.3557 20.258 15.7471 20.258 14.9371C20.258 14.0333 20.095 13.3828 19.7691 12.9851C19.4432 12.5877 19.0259 12.3888 18.5172 12.3888C18.0233 12.3888 17.6098 12.5852 17.2764 12.9778C16.9431 13.3704 16.7764 13.9569 16.7764 14.7371Z" fill="#DA2286"/>
</svg>
