<svg width="22" height="22" viewBox="0 0 22 22" fill="none" xmlns="http://www.w3.org/2000/svg">
<path d="M6.94737 0C5.10481 0 3.33772 0.731953 2.03484 2.03484C0.731953 3.33772 0 5.10481 0 6.94737V15.0526C0 16.8952 0.731953 18.6623 2.03484 19.9652C3.33772 21.268 5.10481 22 6.94737 22H15.0526C16.8952 22 18.6623 21.268 19.9652 19.9652C21.268 18.6623 22 16.8952 22 15.0526V9.26316C22 8.95607 21.878 8.66155 21.6609 8.4444C21.4437 8.22726 21.1492 8.10526 20.8421 8.10526H19.6842C19.3771 8.10526 19.0826 7.98327 18.8655 7.76612C18.6483 7.54898 18.5263 7.25446 18.5263 6.94737C18.5263 5.10481 17.7944 3.33772 16.4915 2.03484C15.1886 0.731953 13.4215 0 11.5789 0H6.94737ZM6.94737 5.78947H11.5789C12.2158 5.78947 12.7368 6.31053 12.7368 6.94737C12.7368 7.58421 12.2158 8.10526 11.5789 8.10526H6.94737C6.31053 8.10526 5.78947 7.58421 5.78947 6.94737C5.78947 6.31053 6.31053 5.78947 6.94737 5.78947ZM6.94737 13.8947H15.0526C15.6895 13.8947 16.2105 14.4158 16.2105 15.0526C16.2105 15.6895 15.6895 16.2105 15.0526 16.2105H6.94737C6.31053 16.2105 5.78947 15.6895 5.78947 15.0526C5.78947 14.4158 6.31053 13.8947 6.94737 13.8947Z" fill="#FAFAFA"/>
</svg>
