<svg width="26" height="18" viewBox="0 0 26 18" fill="none" xmlns="http://www.w3.org/2000/svg">
<path d="M23.5556 0H6.44446C5.09634 0 4.00001 1.0764 4.00001 2.4V8C4.00001 8 4.00025 8 4.00001 8.5C3.99977 9 3.99977 9 4.50001 9C5.00025 9 5.00001 9 5.00001 9C5.00001 9 5.00025 9 5.50001 9C5.99977 9 5.99977 9 6.00001 8.5C6.00026 8 6.00001 8 6.00001 8V4L14.2667 10.56C14.4783 10.7156 14.7356 10.7997 15 10.7997C15.2644 10.7997 15.5217 10.7156 15.7333 10.56L24 4V16H15H6.00001C6.00001 16 14.9998 16 14.4998 16C13.9998 16 14 16 14 16.5C14 17 14 17 14 17C14 17 14 17 14 17.5C14 18 13.9998 18 14.4998 18C14.9998 18 6.00001 18 6.00001 18H15H23.5556C24.9037 18 26 16.9236 26 15.6V2.4C26 1.0764 24.9037 0 23.5556 0Z" fill="white"/>
<rect y="10" width="9" height="2" rx="0.2" fill="white"/>
<rect x="2" y="13" width="9" height="2" rx="0.2" fill="white"/>
<rect x="5" y="16" width="8" height="2" rx="0.2" fill="white"/>
</svg>
