<svg width="110" height="48" viewBox="0 0 110 48" fill="none" xmlns="http://www.w3.org/2000/svg">
<path d="M55.216 1.68799V2.96799C53.8507 3.01065 52.8267 3.18132 52.144 3.47999C51.4613 3.73599 50.992 4.24799 50.736 5.01599C50.5227 5.74132 50.416 6.89332 50.416 8.47198V40.216C50.416 41.752 50.5227 42.904 50.736 43.672C50.992 44.44 51.4613 44.952 52.144 45.208C52.8267 45.464 53.8507 45.6347 55.216 45.72V47C54.0213 46.9147 52.5067 46.872 50.672 46.872C48.88 46.8293 47.0453 46.808 45.168 46.808C43.12 46.808 41.2 46.8293 39.408 46.872C37.616 46.872 36.1653 46.9147 35.056 47V45.72C36.5067 45.6347 37.5947 45.464 38.32 45.208C39.088 44.952 39.6 44.44 39.856 43.672C40.112 42.904 40.24 41.752 40.24 40.216V5.59199H40.688L24.816 47.064H23.792L6.51199 5.84799V36.504C6.51199 38.8507 6.63999 40.664 6.89599 41.944C7.15199 43.1813 7.70666 44.0773 8.55999 44.632C9.45599 45.144 10.8427 45.5067 12.72 45.72V47C11.9093 46.9147 10.8427 46.872 9.51999 46.872C8.19732 46.8293 6.95999 46.808 5.80799 46.808C4.82666 46.808 3.82399 46.8293 2.79999 46.872C1.77599 46.872 0.922657 46.9147 0.23999 47V45.72C1.60532 45.5067 2.62932 45.144 3.31199 44.632C3.99466 44.12 4.44266 43.288 4.65599 42.136C4.91199 40.9413 5.03999 39.32 5.03999 37.272V8.47198C5.03999 6.89332 4.91199 5.74132 4.65599 5.01599C4.44266 4.24799 3.97332 3.73599 3.24799 3.47999C2.56532 3.18132 1.56266 3.01065 0.23999 2.96799V1.68799C0.922657 1.73065 1.77599 1.77332 2.79999 1.81599C3.82399 1.85865 4.82666 1.87999 5.80799 1.87999C7.64266 1.87999 9.43466 1.85865 11.184 1.81599C12.976 1.77332 14.5547 1.73065 15.92 1.68799L29.36 34.136L27.76 35.608L40.624 1.87999C41.3493 1.87999 42.096 1.87999 42.864 1.87999C43.632 1.87999 44.4 1.87999 45.168 1.87999C47.0453 1.87999 48.88 1.85865 50.672 1.81599C52.5067 1.77332 54.0213 1.73065 55.216 1.68799Z" fill="white"/>
<path d="M65.9525 38.04C67.6165 38.04 68.9392 38.488 69.9205 39.384C70.9018 40.2373 71.3925 41.432 71.3925 42.968C71.3925 44.504 70.9018 45.72 69.9205 46.616C68.9392 47.4693 67.6165 47.896 65.9525 47.896C64.2885 47.896 62.9658 47.4693 61.9845 46.616C61.0032 45.72 60.5125 44.504 60.5125 42.968C60.5125 41.432 61.0032 40.2373 61.9845 39.384C62.9658 38.488 64.2885 38.04 65.9525 38.04Z" fill="white"/>
<path d="M92.7385 0.855988C95.2558 0.855988 97.1972 1.13332 98.5625 1.68799C99.9278 2.19999 101.101 2.75465 102.082 3.35199C102.594 3.65065 103 3.88532 103.298 4.05599C103.64 4.18399 103.96 4.24799 104.258 4.24799C104.685 4.24799 104.984 4.01332 105.154 3.54399C105.368 3.07465 105.538 2.37065 105.666 1.43199H107.138C107.096 2.24265 107.032 3.22399 106.946 4.37599C106.904 5.48532 106.861 6.95732 106.818 8.79199C106.818 10.6267 106.818 13.0373 106.818 16.024H105.346C105.176 13.8053 104.664 11.6507 103.81 9.55999C102.957 7.46932 101.741 5.76265 100.162 4.43999C98.6265 3.07465 96.7278 2.39199 94.4665 2.39199C92.4185 2.39199 90.7332 2.96799 89.4105 4.11999C88.0878 5.27199 87.4265 6.87199 87.4265 8.91999C87.4265 10.6267 87.8532 12.0987 88.7065 13.336C89.5598 14.5307 90.7972 15.704 92.4185 16.856C94.0825 18.008 96.0878 19.3947 98.4345 21.016C100.482 22.3387 102.317 23.6613 103.938 24.984C105.56 26.3067 106.861 27.8 107.842 29.464C108.824 31.128 109.314 33.112 109.314 35.416C109.314 38.232 108.568 40.5573 107.074 42.392C105.624 44.2267 103.704 45.6133 101.314 46.552C98.9252 47.448 96.3012 47.896 93.4425 47.896C90.7972 47.896 88.6852 47.64 87.1065 47.128C85.5278 46.616 84.2052 46.0827 83.1385 45.528C82.1998 44.9307 81.4745 44.632 80.9625 44.632C80.5358 44.632 80.2158 44.8667 80.0025 45.336C79.8318 45.8053 79.6825 46.5093 79.5545 47.448H78.0825C78.1678 46.424 78.2105 45.2293 78.2105 43.864C78.2532 42.4987 78.2745 40.728 78.2745 38.552C78.3172 36.3333 78.3385 33.5387 78.3385 30.168H79.8105C79.9812 32.984 80.4505 35.6293 81.2185 38.104C82.0292 40.536 83.2452 42.4987 84.8665 43.992C86.5305 45.4853 88.7278 46.232 91.4585 46.232C92.9518 46.232 94.2745 45.976 95.4265 45.464C96.6212 44.9093 97.5812 44.0987 98.3065 43.032C99.0318 41.9653 99.3945 40.6427 99.3945 39.064C99.3945 37.272 98.9678 35.7147 98.1145 34.392C97.3038 33.0693 96.1732 31.832 94.7225 30.68C93.3145 29.528 91.6718 28.3547 89.7945 27.16C87.7892 25.8373 85.9118 24.5147 84.1625 23.192C82.4132 21.8693 81.0052 20.3547 79.9385 18.648C78.9145 16.9413 78.4025 14.9147 78.4025 12.568C78.4025 9.87999 79.0638 7.68265 80.3865 5.97599C81.7518 4.22665 83.5225 2.94665 85.6985 2.13599C87.9172 1.28265 90.2638 0.855988 92.7385 0.855988Z" fill="white"/>
</svg>
