<svg width="45" height="45" viewBox="0 0 45 45" fill="none" xmlns="http://www.w3.org/2000/svg">
<circle cx="22.1083" cy="22.1083" r="22.1083" fill="#DB417C"/>
<path fill-rule="evenodd" clip-rule="evenodd" d="M22.1086 32.879C16.1694 32.879 11.3376 28.0473 11.3376 22.1083C11.3376 16.1693 16.1694 11.3376 22.1086 11.3376C28.0478 11.3376 32.879 16.1693 32.879 22.1083C32.879 28.0473 28.0478 32.879 22.1086 32.879ZM31.1921 23.5824C30.877 23.4835 28.3446 22.7276 25.4616 23.1893C26.6645 26.4957 27.1545 29.1889 27.2488 29.7483C29.3126 28.3529 30.7821 26.1423 31.1921 23.5824ZM25.7019 30.591C25.5652 29.7833 25.0314 26.971 23.7396 23.6141C23.7194 23.6215 23.6992 23.6275 23.679 23.6349C18.4898 25.443 16.6272 29.0415 16.4616 29.3801C18.0212 30.5964 19.9821 31.322 22.1086 31.322C23.3829 31.322 24.5979 31.0609 25.7019 30.591ZM15.2735 28.2735C15.4821 27.9167 18.0071 23.7366 22.7515 22.2025C22.872 22.1642 22.9925 22.1271 23.1143 22.0935C22.8834 21.5705 22.6316 21.0474 22.3684 20.5318C17.7742 21.907 13.316 21.8491 12.9134 21.8411C12.9107 21.9346 12.9087 22.0282 12.9087 22.1224C12.9087 24.4851 13.8047 26.6425 15.2735 28.2735ZM13.1032 20.2383C13.5145 20.2437 17.305 20.2599 21.6078 19.1169C20.0838 16.4076 18.4399 14.129 18.1976 13.7965C15.6235 15.0108 13.6996 17.3836 13.1032 20.2383ZM19.9525 13.1786C20.207 13.5192 21.8777 15.7944 23.3856 18.5643C26.6571 17.3378 28.0417 15.4766 28.2073 15.241C26.5823 13.7992 24.4464 12.9228 22.1086 12.9228C21.3661 12.9228 20.6445 13.0116 19.9525 13.1786ZM29.2298 16.3046C29.036 16.5671 27.4945 18.5434 24.0924 19.9321C24.3071 20.3703 24.5118 20.8159 24.7029 21.2642C24.7709 21.4237 24.8369 21.5819 24.9015 21.7394C27.9623 21.3544 31.0043 21.971 31.3072 22.0356C31.287 19.8641 30.5108 17.8703 29.2298 16.3046Z" fill="white"/>
</svg>
