<svg width="45" height="45" viewBox="0 0 45 45" fill="none" xmlns="http://www.w3.org/2000/svg">
<circle cx="22.1083" cy="22.1083" r="22.1083" fill="url(#paint0_linear)"/>
<path fill-rule="evenodd" clip-rule="evenodd" d="M26.0034 12.4713H18.2131C15.0471 12.4713 12.4713 15.0471 12.4713 18.2131V26.0034C12.4713 29.1694 15.0471 31.7452 18.2131 31.7452H26.0034C29.1694 31.7452 31.7452 29.1694 31.7452 26.0034V18.2131C31.7452 15.0471 29.1694 12.4713 26.0034 12.4713ZM29.8063 26.0034C29.8063 28.1036 28.1037 29.8062 26.0034 29.8062H18.2131C16.1129 29.8062 14.4103 28.1036 14.4103 26.0034V18.2131C14.4103 16.1128 16.1129 14.4103 18.2131 14.4103H26.0034C28.1037 14.4103 29.8063 16.1128 29.8063 18.2131V26.0034ZM17.1234 22.1082C17.1234 19.3596 19.3596 17.1233 22.1083 17.1233C24.857 17.1233 27.0932 19.3595 27.0932 22.1082C27.0932 24.8569 24.857 27.0931 22.1083 27.0931C19.3596 27.0931 17.1234 24.8569 17.1234 22.1082ZM22.1083 25.1542C20.426 25.1542 19.0623 23.7905 19.0623 22.1083C19.0623 20.426 20.4261 19.0623 22.1083 19.0623C23.7905 19.0623 25.1542 20.426 25.1542 22.1083C25.1542 23.7905 23.7905 25.1542 22.1083 25.1542ZM27.1028 18.3553C27.7625 18.3553 28.2973 17.8205 28.2973 17.1608C28.2973 16.5011 27.7625 15.9663 27.1028 15.9663C26.4431 15.9663 25.9083 16.5011 25.9083 17.1608C25.9083 17.8205 26.4431 18.3553 27.1028 18.3553Z" fill="white"/>
<defs>
<linearGradient id="paint0_linear" x1="0.147729" y1="-0.0738642" x2="6.90335e-07" y2="44.1427" gradientUnits="userSpaceOnUse">
<stop stop-color="#7024C4"/>
<stop offset="0.415461" stop-color="#C21975"/>
<stop offset="0.702206" stop-color="#C74C4D"/>
<stop offset="1" stop-color="#E09B3D"/>
</linearGradient>
</defs>
</svg>
