<svg width="44" height="44" viewBox="0 0 44 44" fill="none" xmlns="http://www.w3.org/2000/svg">
<circle cx="22" cy="22" r="22" fill="#2AA3EF"/>
<path fill-rule="evenodd" clip-rule="evenodd" d="M31.0256 16.4027C30.3619 16.6971 29.6472 16.8962 28.8985 16.9863C29.6631 16.5274 30.2504 15.8024 30.5265 14.938C29.8108 15.3624 29.0185 15.6704 28.1743 15.8359C27.4989 15.1161 26.5367 14.6667 25.4716 14.6667C23.4262 14.6667 21.7674 16.3241 21.7674 18.3692C21.7674 18.6605 21.8014 18.9423 21.8641 19.2137C18.7865 19.0597 16.0583 17.5845 14.2317 15.3445C13.9121 15.8914 13.7305 16.5274 13.7305 17.2063C13.7305 18.4908 14.3847 19.6244 15.3776 20.2876C14.7701 20.2687 14.1988 20.1021 13.7007 19.8245C13.7007 19.8402 13.7007 19.8559 13.7007 19.8716C13.7007 21.6653 14.9762 23.1614 16.6711 23.5019C16.3599 23.5868 16.0339 23.6318 15.6951 23.6318C15.4572 23.6318 15.2247 23.6088 14.9985 23.5648C15.47 25.0357 16.8378 26.1065 18.4584 26.1368C17.1904 27.129 15.5932 27.721 13.8579 27.721C13.5595 27.721 13.2643 27.7042 12.9744 27.6696C14.613 28.7205 16.5596 29.3334 18.6516 29.3334C25.4631 29.3334 29.1884 23.6915 29.1884 18.7988C29.1884 18.6374 29.1842 18.4792 29.1778 18.32C29.901 17.7982 30.5297 17.1455 31.0256 16.4038V16.4027Z" fill="white"/>
</svg>
